# Blender v2.68 (sub 0) OBJ File: 'kriti-vehicle.blend'
# www.blender.org
mtllib kriti-vehicle4.mtl
o Cube.005_Cube.006
v -0.025000 0.150000 1.550000
v -0.025000 0.450000 1.550000
v -0.025000 0.450000 -0.950000
v -0.025000 0.150000 -0.950000
v 0.025000 0.150000 1.550001
v 0.025000 0.450000 1.549999
v 0.025000 0.450000 -0.950000
v 0.025000 0.150000 -0.950000
vn -1.000000 -0.000000 0.000000
vn 1.000000 0.000000 -0.000000
vn -0.000014 0.000005 1.000000
vn -0.000002 1.000000 -0.000000
vn -0.000007 -0.000002 -1.000000
vn 0.000002 -1.000000 0.000000
vn 0.000014 0.000000 1.000000
vn -0.000000 1.000000 -0.000000
usemtl simple
s off
f 1//1 2//1 4//1
f 5//2 8//2 7//2
f 1//3 5//3 6//3
f 2//4 6//4 3//4
f 3//5 7//5 4//5
f 5//6 1//6 8//6
f 2//1 3//1 4//1
f 6//2 5//2 7//2
f 2//7 1//7 6//7
f 6//8 7//8 3//8
f 7//5 8//5 4//5
f 1//6 4//6 8//6
o Cube.004_Cube.005
v 2.135876 -0.671231 0.500000
v 1.428769 0.035875 0.500000
v 1.428769 0.035875 -0.500000
v 2.135876 -0.671231 -0.500000
v 2.171232 -0.635875 0.500000
v 1.464124 0.071231 0.500000
v 1.464124 0.071230 -0.500000
v 2.171232 -0.635875 -0.500000
vn -0.707106 -0.707108 0.000000
vn 0.707106 0.707108 -0.000000
vn -0.000003 -0.000003 1.000000
vn -0.707112 0.707102 -0.000000
vn -0.000002 -0.000002 -1.000000
vn 0.707109 -0.707105 0.000000
vn 0.000004 0.000005 1.000000
vn -0.707107 0.707107 -0.000000
vn 0.707111 -0.707103 0.000000
usemtl simple
s off
f 9//9 10//9 12//9
f 13//10 16//10 14//10
f 9//11 13//11 10//11
f 10//12 14//12 11//12
f 11//13 15//13 12//13
f 13//14 9//14 16//14
f 10//9 11//9 12//9
f 16//10 15//10 14//10
f 13//15 14//15 10//15
f 14//16 15//16 11//16
f 15//13 16//13 12//13
f 9//17 12//17 16//17
o Cube.003_Cube.004
v -2.171231 -0.635876 0.500000
v -1.464124 0.071231 0.500000
v -1.464125 0.071231 -0.500000
v -2.171231 -0.635876 -0.500000
v -2.135875 -0.671231 0.500000
v -1.428769 0.035876 0.500000
v -1.428769 0.035876 -0.500000
v -2.135875 -0.671231 -0.500000
vn -0.707107 0.707106 0.000000
vn 0.707107 -0.707106 -0.000000
vn -0.000003 0.000003 1.000000
vn 0.707102 0.707111 -0.000000
vn -0.000002 0.000001 -1.000000
vn -0.707103 -0.707110 0.000000
vn 0.000005 -0.000004 1.000000
vn 0.707107 0.707106 -0.000000
vn -0.000002 0.000002 -1.000000
usemtl simple
s off
f 17//18 18//18 20//18
f 21//19 24//19 22//19
f 17//20 21//20 18//20
f 18//21 22//21 19//21
f 19//22 23//22 20//22
f 21//23 17//23 24//23
f 18//18 19//18 20//18
f 24//19 23//19 22//19
f 21//24 22//24 18//24
f 22//25 23//25 19//25
f 23//26 24//26 20//26
f 17//23 20//23 24//23
o Cube.001_Cube.003
v 0.500000 0.025000 0.500000
v 1.500000 0.025000 0.500000
v 1.500000 0.025000 -0.500000
v 0.500000 0.025000 -0.500000
v 0.500000 -0.025000 0.500000
v 1.500000 -0.025000 0.500000
v 1.500000 -0.025000 -0.500000
v 0.500000 -0.025000 -0.500000
vn 0.000000 -1.000000 -0.000000
vn 0.000000 0.000005 1.000000
vn 1.000000 0.000005 -0.000000
vn -0.000000 0.000002 -1.000000
vn -1.000000 -0.000005 0.000000
vn 0.000001 -0.000007 1.000000
vn 1.000000 -0.000002 -0.000000
vn -0.000000 0.000003 -1.000000
vn -1.000000 -0.000004 0.000000
usemtl simple
s off
f 25//8 26//8 28//8
f 29//27 32//27 30//27
f 25//28 29//28 26//28
f 26//29 30//29 27//29
f 27//30 31//30 28//30
f 29//31 25//31 32//31
f 26//8 27//8 28//8
f 32//27 31//27 30//27
f 29//32 30//32 26//32
f 30//33 31//33 27//33
f 31//34 32//34 28//34
f 25//35 28//35 32//35
o Cube.002
v -1.500000 0.025000 0.500000
v -0.500000 0.025000 0.500000
v -0.500000 0.025000 -0.500000
v -1.500000 0.025000 -0.500000
v -1.500000 -0.025000 0.500000
v -0.500000 -0.025000 0.500000
v -0.500000 -0.025000 -0.500000
v -1.500000 -0.025000 -0.500000
vn 1.000000 0.000006 -0.000000
vn 1.000000 -0.000002 -0.000001
usemtl simple
s off
f 33//8 34//8 36//8
f 37//27 40//27 38//27
f 33//28 37//28 34//28
f 34//36 38//36 35//36
f 35//30 39//30 36//30
f 37//31 33//31 40//31
f 34//8 35//8 36//8
f 40//27 39//27 38//27
f 37//32 38//32 34//32
f 38//37 39//37 35//37
f 39//34 40//34 36//34
f 33//31 36//31 40//31
o Cube
v -0.500000 -0.250000 1.000000
v -0.500000 -0.250000 -1.000000
v 0.500000 -0.250000 -1.000000
v 0.500000 -0.250000 1.000000
v -0.500000 0.250000 0.999999
v -0.500000 0.250000 -1.000001
v 0.500000 0.250000 -1.000000
v 0.500000 0.250000 1.000000
vn 0.000000 -0.000001 -1.000000
vn -0.000001 0.000001 1.000000
vn -1.000000 0.000001 -0.000000
vn 0.000001 0.000000 -1.000000
vn -0.000000 0.000001 1.000000
usemtl simple
s off
f 41//27 42//27 44//27
f 45//8 48//8 46//8
f 41//1 45//1 42//1
f 42//38 46//38 43//38
f 43//2 47//2 44//2
f 45//39 41//39 48//39
f 42//27 43//27 44//27
f 48//8 47//8 46//8
f 45//40 46//40 42//40
f 46//41 47//41 43//41
f 47//2 48//2 44//2
f 41//42 44//42 48//42
